<svg viewBox="0 0 540 430" xmlns="http://www.w3.org/2000/svg" fill="none">
  <path d="M 335.2,344.3 A 170 170 0 1 1 335.2,125.7 L 284.7,168.2 A 104 104 0 1 0 284.7,301.8 Z" fill="#2E7DB1"></path>
  <path d="M 248.0,70.0 L 316.0,70.0 L 358.0,232.0 L 400.0,70.0 L 468.0,70.0 L 358.0,398.0 Z" fill="#8E1F3F"></path>
  <path d="M 356.0,77.2 L 358.0,63.0 L 360.0,77.2 Z M 362.7,77.9 L 371.5,66.6 L 366.2,79.9 Z M 368.1,81.8 L 381.4,76.5 L 370.1,85.3 Z M 370.8,88.0 L 385.0,90.0 L 370.8,92.0 Z M 370.1,94.7 L 381.4,103.5 L 368.1,98.2 Z M 366.2,100.1 L 371.5,113.4 L 362.7,102.1 Z M 360.0,102.8 L 358.0,117.0 L 356.0,102.8 Z M 353.3,102.1 L 344.5,113.4 L 349.8,100.1 Z M 347.9,98.2 L 334.6,103.5 L 345.9,94.7 Z M 345.2,92.0 L 331.0,90.0 L 345.2,88.0 Z M 345.9,85.3 L 334.6,76.5 L 347.9,81.8 Z M 349.8,79.9 L 344.5,66.6 L 353.3,77.9 Z " fill="#E0A53A"></path>
  <path d="M 371.0,90.0 A 13 13 0 1 0 345.0,90.0 A 13 13 0 1 0 371.0,90.0 Z" fill="#E0A53A"></path>
  <path d="M 358.0,119.0 L 362.5,131.9 L 376.1,132.1 L 365.2,140.3 L 369.2,153.4 L 358.0,145.6 L 346.8,153.4 L 350.8,140.3 L 339.9,132.1 L 353.5,131.9 Z" fill="#2E7DB1"></path>
  <path d="M 358.0,161.0 L 362.5,173.9 L 376.1,174.1 L 365.2,182.3 L 369.2,195.4 L 358.0,187.6 L 346.8,195.4 L 350.8,182.3 L 339.9,174.1 L 353.5,173.9 Z" fill="#8E1F3F"></path>
</svg>